<?xml version="1.0" encoding="UTF-8" standalone="no"?>
<!DOCTYPE svg PUBLIC "-//W3C//DTD SVG 1.1//EN"
 "http://www.w3.org/Graphics/SVG/1.1/DTD/svg11.dtd">
<!-- Generated by graphviz version 8.0.3 (20230416.2022)
 -->
<!-- Pages: 1 -->
<svg width="1187pt" height="492pt"
 viewBox="0.00 0.00 1186.82 492.38" xmlns="http://www.w3.org/2000/svg" xmlns:xlink="http://www.w3.org/1999/xlink">
<g id="graph0" class="graph" transform="scale(1 1) rotate(0) translate(4 488.38)">
<polygon fill="black" stroke="none" points="-4,4 -4,-488.38 1182.82,-488.38 1182.82,4 -4,4"/>
<!-- su:g -->
<g id="node1" class="node">
<title>su:g</title>
<polygon fill="none" stroke="cyan" points="887.62,-310.28 833.62,-310.28 833.62,-274.28 887.62,-274.28 887.62,-310.28"/>
<text text-anchor="middle" x="860.62" y="-288.58" font-family="FiraCode Nerd Font Mono Regular" font-size="14.00" fill="white">su:g</text>
</g>
<!-- crm:E74_Group -->
<g id="node2" class="node">
<title>crm:E74_Group</title>
<polygon fill="none" stroke="cyan" points="1093.9,-481.12 969.9,-481.12 969.9,-445.12 1093.9,-445.12 1093.9,-481.12"/>
<text text-anchor="middle" x="1031.9" y="-459.42" font-family="FiraCode Nerd Font Mono Regular" font-size="14.00" fill="white">crm:E74_Group</text>
</g>
<!-- su:g&#45;&gt;crm:E74_Group -->
<g id="edge1" class="edge">
<title>su:g&#45;&gt;crm:E74_Group</title>
<path fill="none" stroke="cyan" d="M878.95,-310.56C909.52,-341.05 970.99,-402.37 1005.98,-437.27"/>
<polygon fill="cyan" stroke="cyan" points="1002.89,-439.13 1012.44,-443.71 1007.83,-434.17 1002.89,-439.13"/>
<text text-anchor="middle" x="908.97" y="-377.72" font-family="FiraCode Nerd Font Mono Regular" font-size="14.00" fill="white">rdf:type</text>
</g>
<!-- « North Mississipi Allstars » -->
<g id="node3" class="node">
<title>« North Mississipi Allstars »</title>
<polygon fill="none" stroke="cyan" points="1178.82,-164.26 922.82,-164.26 922.82,-128.26 1178.82,-128.26 1178.82,-164.26"/>
<text text-anchor="middle" x="1050.82" y="-142.56" font-family="FiraCode Nerd Font Mono Regular" font-size="14.00" fill="white">« North Mississipi Allstars »</text>
</g>
<!-- su:g&#45;&gt;« North Mississipi Allstars » -->
<g id="edge2" class="edge">
<title>su:g&#45;&gt;« North Mississipi Allstars »</title>
<path fill="none" stroke="cyan" d="M884.71,-273.79C918.58,-247.78 980.37,-200.35 1018.29,-171.23"/>
<polygon fill="cyan" stroke="cyan" points="1020.12,-173.47 1025.92,-164.61 1015.86,-167.92 1020.12,-173.47"/>
<text text-anchor="middle" x="856.5" y="-226.31" font-family="FiraCode Nerd Font Mono Regular" font-size="14.00" fill="white">crm:P1_is_identified_by</text>
</g>
<!-- su:e -->
<g id="node4" class="node">
<title>su:e</title>
<polygon fill="none" stroke="cyan" points="597.88,-261.48 543.88,-261.48 543.88,-225.48 597.88,-225.48 597.88,-261.48"/>
<text text-anchor="middle" x="570.88" y="-239.78" font-family="FiraCode Nerd Font Mono Regular" font-size="14.00" fill="white">su:e</text>
</g>
<!-- su:e&#45;&gt;su:g -->
<g id="edge7" class="edge">
<title>su:e&#45;&gt;su:g</title>
<path fill="none" stroke="cyan" d="M598.14,-248.07C650.02,-256.81 763.06,-275.85 822.44,-285.85"/>
<polygon fill="cyan" stroke="cyan" points="821.78,-289.46 832.22,-287.66 822.94,-282.55 821.78,-289.46"/>
<text text-anchor="middle" x="619.29" y="-270.76" font-family="FiraCode Nerd Font Mono Regular" font-size="14.00" fill="white">crm:P14_carried_out_by</text>
</g>
<!-- crm:E65_Creation -->
<g id="node5" class="node">
<title>crm:E65_Creation</title>
<polygon fill="none" stroke="cyan" points="636.77,-36 487.77,-36 487.77,0 636.77,0 636.77,-36"/>
<text text-anchor="middle" x="562.27" y="-14.3" font-family="FiraCode Nerd Font Mono Regular" font-size="14.00" fill="white">crm:E65_Creation</text>
</g>
<!-- su:e&#45;&gt;crm:E65_Creation -->
<g id="edge3" class="edge">
<title>su:e&#45;&gt;crm:E65_Creation</title>
<path fill="none" stroke="cyan" d="M570.18,-225.03C568.68,-185.96 565.19,-94.58 563.39,-47.38"/>
<polygon fill="cyan" stroke="cyan" points="566.85,-47.25 562.97,-37.39 559.85,-47.52 566.85,-47.25"/>
<text text-anchor="middle" x="533.28" y="-140.01" font-family="FiraCode Nerd Font Mono Regular" font-size="14.00" fill="white">rdf:type</text>
</g>
<!-- su:a -->
<g id="node6" class="node">
<title>su:a</title>
<polygon fill="none" stroke="cyan" points="309.39,-311.9 255.39,-311.9 255.39,-275.9 309.39,-275.9 309.39,-311.9"/>
<text text-anchor="middle" x="282.39" y="-290.2" font-family="FiraCode Nerd Font Mono Regular" font-size="14.00" fill="white">su:a</text>
</g>
<!-- su:e&#45;&gt;su:a -->
<g id="edge4" class="edge">
<title>su:e&#45;&gt;su:a</title>
<path fill="none" stroke="cyan" d="M543.48,-248.27C491.69,-257.32 379.32,-276.96 320.32,-287.27"/>
<polygon fill="cyan" stroke="cyan" points="319.85,-283.98 310.61,-289.15 321.06,-290.87 319.85,-283.98"/>
<text text-anchor="middle" x="353.4" y="-256.57" font-family="FiraCode Nerd Font Mono Regular" font-size="14.00" fill="white">crm:P94_has_created</text>
</g>
<!-- « Set Sail » -->
<g id="node7" class="node">
<title>« Set Sail »</title>
<polygon fill="none" stroke="cyan" points="148.42,-167.13 32.42,-167.13 32.42,-131.13 148.42,-131.13 148.42,-167.13"/>
<text text-anchor="middle" x="90.42" y="-145.43" font-family="FiraCode Nerd Font Mono Regular" font-size="14.00" fill="white">« Set Sail »</text>
</g>
<!-- su:a&#45;&gt;« Set Sail » -->
<g id="edge5" class="edge">
<title>su:a&#45;&gt;« Set Sail »</title>
<path fill="none" stroke="cyan" d="M258.08,-275.57C223.98,-249.86 161.87,-203.01 123.57,-174.12"/>
<polygon fill="cyan" stroke="cyan" points="125.93,-170.77 115.84,-167.54 121.72,-176.36 125.93,-170.77"/>
<text text-anchor="middle" x="95.82" y="-228.65" font-family="FiraCode Nerd Font Mono Regular" font-size="14.00" fill="white">crm:P1_is_identified_by</text>
</g>
<!-- crm:E73_Information_Object -->
<g id="node8" class="node">
<title>crm:E73_Information_Object</title>
<polygon fill="none" stroke="cyan" points="231,-484.38 0,-484.38 0,-448.38 231,-448.38 231,-484.38"/>
<text text-anchor="middle" x="115.5" y="-462.68" font-family="FiraCode Nerd Font Mono Regular" font-size="14.00" fill="white">crm:E73_Information_Object</text>
</g>
<!-- su:a&#45;&gt;crm:E73_Information_Object -->
<g id="edge6" class="edge">
<title>su:a&#45;&gt;crm:E73_Information_Object</title>
<path fill="none" stroke="cyan" d="M264.53,-312.36C234.67,-343.22 174.53,-405.37 140.48,-440.56"/>
<polygon fill="cyan" stroke="cyan" points="138.67,-437.43 134.23,-447.05 143.7,-442.3 138.67,-437.43"/>
<text text-anchor="middle" x="169.01" y="-380.26" font-family="FiraCode Nerd Font Mono Regular" font-size="14.00" fill="white">rdf:type</text>
</g>
</g>
</svg>
