<?xml version="1.0" encoding="UTF-8" standalone="no"?>
<!DOCTYPE svg PUBLIC "-//W3C//DTD SVG 1.1//EN"
 "http://www.w3.org/Graphics/SVG/1.1/DTD/svg11.dtd">
<!-- Generated by graphviz version 8.0.3 (20230416.2022)
 -->
<!-- Pages: 1 -->
<svg width="1155pt" height="844pt"
 viewBox="0.00 0.00 1154.58 844.02" xmlns="http://www.w3.org/2000/svg" xmlns:xlink="http://www.w3.org/1999/xlink">
<g id="graph0" class="graph" transform="scale(1 1) rotate(0) translate(4 840.02)">
<polygon fill="black" stroke="none" points="-4,4 -4,-840.02 1150.58,-840.02 1150.58,4 -4,4"/>
<!-- m2:e -->
<g id="node1" class="node">
<title>m2:e</title>
<polygon fill="none" stroke="cyan" points="441.88,-324.68 387.88,-324.68 387.88,-288.68 441.88,-288.68 441.88,-324.68"/>
<text text-anchor="middle" x="414.88" y="-302.98" font-family="FiraCode Nerd Font Mono Regular" font-size="14.00" fill="white">m2:e</text>
</g>
<!-- m2:p -->
<g id="node2" class="node">
<title>m2:p</title>
<polygon fill="none" stroke="cyan" points="261.98,-613.38 207.98,-613.38 207.98,-577.38 261.98,-577.38 261.98,-613.38"/>
<text text-anchor="middle" x="234.98" y="-591.68" font-family="FiraCode Nerd Font Mono Regular" font-size="14.00" fill="white">m2:p</text>
</g>
<!-- m2:e&#45;&gt;m2:p -->
<g id="edge1" class="edge">
<title>m2:e&#45;&gt;m2:p</title>
<path fill="none" stroke="cyan" d="M403.36,-325.18C372.58,-374.58 288.33,-509.76 252.01,-568.04"/>
<polygon fill="cyan" stroke="cyan" points="248.73,-565.69 246.41,-576.03 254.67,-569.4 248.73,-565.69"/>
<text text-anchor="middle" x="236.68" y="-450.41" font-family="FiraCode Nerd Font Mono Regular" font-size="14.00" fill="white">crm:P14_carried_out_by</text>
</g>
<!-- crm:E13_Attribute_Assignment -->
<g id="node4" class="node">
<title>crm:E13_Attribute_Assignment</title>
<polygon fill="none" stroke="cyan" points="424.44,-36 176.44,-36 176.44,0 424.44,0 424.44,-36"/>
<text text-anchor="middle" x="300.44" y="-14.3" font-family="FiraCode Nerd Font Mono Regular" font-size="14.00" fill="white">crm:E13_Attribute_Assignment</text>
</g>
<!-- m2:e&#45;&gt;crm:E13_Attribute_Assignment -->
<g id="edge3" class="edge">
<title>m2:e&#45;&gt;crm:E13_Attribute_Assignment</title>
<path fill="none" stroke="cyan" d="M407.55,-288.19C388.09,-239.1 335.04,-105.28 311.71,-46.42"/>
<polygon fill="cyan" stroke="cyan" points="314.65,-45.35 307.71,-37.34 308.14,-47.93 314.65,-45.35"/>
<text text-anchor="middle" x="326.13" y="-171.11" font-family="FiraCode Nerd Font Mono Regular" font-size="14.00" fill="white">rdf:type</text>
</g>
<!-- m2:a -->
<g id="node5" class="node">
<title>m2:a</title>
<polygon fill="none" stroke="cyan" points="779.66,-479.35 725.66,-479.35 725.66,-443.35 779.66,-443.35 779.66,-479.35"/>
<text text-anchor="middle" x="752.66" y="-457.65" font-family="FiraCode Nerd Font Mono Regular" font-size="14.00" fill="white">m2:a</text>
</g>
<!-- m2:e&#45;&gt;m2:a -->
<g id="edge4" class="edge">
<title>m2:e&#45;&gt;m2:a</title>
<path fill="none" stroke="cyan" d="M442.24,-319.21C502.59,-346.85 647.21,-413.07 715.61,-444.39"/>
<polygon fill="cyan" stroke="cyan" points="713.97,-447.94 724.52,-448.92 716.89,-441.58 713.97,-447.94"/>
<text text-anchor="middle" x="454.93" y="-385.6" font-family="FiraCode Nerd Font Mono Regular" font-size="14.00" fill="white">crm:P140_assigned_attribute_to</text>
</g>
<!-- « Quel bel album ! » -->
<g id="node6" class="node">
<title>« Quel bel album ! »</title>
<polygon fill="none" stroke="cyan" points="689.18,-95.48 507.18,-95.48 507.18,-59.48 689.18,-59.48 689.18,-95.48"/>
<text text-anchor="middle" x="598.18" y="-73.78" font-family="FiraCode Nerd Font Mono Regular" font-size="14.00" fill="white">« Quel bel album ! »</text>
</g>
<!-- m2:e&#45;&gt;« Quel bel album ! » -->
<g id="edge5" class="edge">
<title>m2:e&#45;&gt;« Quel bel album ! »</title>
<path fill="none" stroke="cyan" d="M429.57,-288.32C461.82,-248 538.91,-151.6 576.64,-104.42"/>
<polygon fill="cyan" stroke="cyan" points="579.91,-106.93 583.42,-96.94 574.44,-102.56 579.91,-106.93"/>
<text text-anchor="middle" x="432.61" y="-200.17" font-family="FiraCode Nerd Font Mono Regular" font-size="14.00" fill="white">crm:P141_assigned</text>
</g>
<!-- crm:P3_has_note -->
<g id="node7" class="node">
<title>crm:P3_has_note</title>
<polygon fill="none" stroke="cyan" points="189.55,-278.14 49.55,-278.14 49.55,-242.14 189.55,-242.14 189.55,-278.14"/>
<text text-anchor="middle" x="119.55" y="-256.44" font-family="FiraCode Nerd Font Mono Regular" font-size="14.00" fill="white">crm:P3_has_note</text>
</g>
<!-- m2:e&#45;&gt;crm:P3_has_note -->
<g id="edge6" class="edge">
<title>m2:e&#45;&gt;crm:P3_has_note</title>
<path fill="none" stroke="cyan" d="M387.63,-302.39C345.51,-295.75 262.96,-282.74 200.54,-272.9"/>
<polygon fill="cyan" stroke="cyan" points="201.34,-269.33 190.92,-271.23 200.25,-276.24 201.34,-269.33"/>
<text text-anchor="middle" x="153.58" y="-291.45" font-family="FiraCode Nerd Font Mono Regular" font-size="14.00" fill="white">crm:P177_assigned_property_of_type</text>
</g>
<!-- crm:E21_Person -->
<g id="node3" class="node">
<title>crm:E21_Person</title>
<polygon fill="none" stroke="cyan" points="132,-836.02 0,-836.02 0,-800.02 132,-800.02 132,-836.02"/>
<text text-anchor="middle" x="66" y="-814.32" font-family="FiraCode Nerd Font Mono Regular" font-size="14.00" fill="white">crm:E21_Person</text>
</g>
<!-- m2:p&#45;&gt;crm:E21_Person -->
<g id="edge2" class="edge">
<title>m2:p&#45;&gt;crm:E21_Person</title>
<path fill="none" stroke="cyan" d="M221.15,-613.6C191.44,-652.74 121.41,-745.02 86.51,-791"/>
<polygon fill="cyan" stroke="cyan" points="83.28,-788.47 80.02,-798.55 88.85,-792.7 83.28,-788.47"/>
<text text-anchor="middle" x="120.33" y="-706.1" font-family="FiraCode Nerd Font Mono Regular" font-size="14.00" fill="white">rdf:type</text>
</g>
<!-- « Set Sail » -->
<g id="node8" class="node">
<title>« Set Sail »</title>
<polygon fill="none" stroke="cyan" points="939.86,-734.99 823.86,-734.99 823.86,-698.99 939.86,-698.99 939.86,-734.99"/>
<text text-anchor="middle" x="881.86" y="-713.29" font-family="FiraCode Nerd Font Mono Regular" font-size="14.00" fill="white">« Set Sail »</text>
</g>
<!-- m2:a&#45;&gt;« Set Sail » -->
<g id="edge7" class="edge">
<title>m2:a&#45;&gt;« Set Sail »</title>
<path fill="none" stroke="cyan" d="M761.95,-479.74C784.3,-523.96 841.17,-636.48 867.76,-689.09"/>
<polygon fill="cyan" stroke="cyan" points="865.02,-690.43 872.65,-697.77 871.26,-687.27 865.02,-690.43"/>
<text text-anchor="middle" x="719.85" y="-588.21" font-family="FiraCode Nerd Font Mono Regular" font-size="14.00" fill="white">crm:P1_is_identified_by</text>
</g>
<!-- crm:E73_Information_Object -->
<g id="node9" class="node">
<title>crm:E73_Information_Object</title>
<polygon fill="none" stroke="cyan" points="1146.58,-400.17 915.58,-400.17 915.58,-364.17 1146.58,-364.17 1146.58,-400.17"/>
<text text-anchor="middle" x="1031.08" y="-378.47" font-family="FiraCode Nerd Font Mono Regular" font-size="14.00" fill="white">crm:E73_Information_Object</text>
</g>
<!-- m2:a&#45;&gt;crm:E73_Information_Object -->
<g id="edge8" class="edge">
<title>m2:a&#45;&gt;crm:E73_Information_Object</title>
<path fill="none" stroke="cyan" d="M780.12,-453.54C820.63,-442.02 897.88,-420.05 956.02,-403.52"/>
<polygon fill="cyan" stroke="cyan" points="956.62,-406.7 965.28,-400.6 954.7,-399.97 956.62,-406.7"/>
<text text-anchor="middle" x="834.57" y="-432.33" font-family="FiraCode Nerd Font Mono Regular" font-size="14.00" fill="white">rdf:type</text>
</g>
</g>
</svg>
