<?xml version="1.0" encoding="UTF-8" standalone="no"?>
<!DOCTYPE svg PUBLIC "-//W3C//DTD SVG 1.1//EN"
 "http://www.w3.org/Graphics/SVG/1.1/DTD/svg11.dtd">
<!-- Generated by graphviz version 8.0.3 (20230416.2022)
 -->
<!-- Pages: 1 -->
<svg width="1446pt" height="924pt"
 viewBox="0.00 0.00 1445.63 923.75" xmlns="http://www.w3.org/2000/svg" xmlns:xlink="http://www.w3.org/1999/xlink">
<g id="graph0" class="graph" transform="scale(1 1) rotate(0) translate(4 919.75)">
<polygon fill="black" stroke="none" points="-4,4 -4,-919.75 1441.63,-919.75 1441.63,4 -4,4"/>
<!-- m2:x -->
<g id="node1" class="node">
<title>m2:x</title>
<polygon fill="none" stroke="cyan" points="1150.54,-644.66 1096.54,-644.66 1096.54,-608.66 1150.54,-608.66 1150.54,-644.66"/>
<text text-anchor="middle" x="1123.54" y="-622.96" font-family="FiraCode Nerd Font Mono Regular" font-size="14.00" fill="white">m2:x</text>
</g>
<!-- crm:E36_Visual_Item -->
<g id="node2" class="node">
<title>crm:E36_Visual_Item</title>
<polygon fill="none" stroke="cyan" points="1434.03,-898.71 1261.03,-898.71 1261.03,-862.71 1434.03,-862.71 1434.03,-898.71"/>
<text text-anchor="middle" x="1347.53" y="-877.01" font-family="FiraCode Nerd Font Mono Regular" font-size="14.00" fill="white">crm:E36_Visual_Item</text>
</g>
<!-- m2:x&#45;&gt;crm:E36_Visual_Item -->
<g id="edge1" class="edge">
<title>m2:x&#45;&gt;crm:E36_Visual_Item</title>
<path fill="none" stroke="cyan" d="M1139.65,-644.93C1178.7,-689.22 1278.56,-802.49 1324.17,-854.22"/>
<polygon fill="cyan" stroke="cyan" points="1321.02,-856.08 1330.26,-861.27 1326.27,-851.45 1321.02,-856.08"/>
<text text-anchor="middle" x="1198.41" y="-753.37" font-family="FiraCode Nerd Font Mono Regular" font-size="14.00" fill="white">rdf:type</text>
</g>
<!-- m2:id -->
<g id="node3" class="node">
<title>m2:id</title>
<polygon fill="none" stroke="cyan" points="860.32,-369.11 802.32,-369.11 802.32,-333.11 860.32,-333.11 860.32,-369.11"/>
<text text-anchor="middle" x="831.32" y="-347.41" font-family="FiraCode Nerd Font Mono Regular" font-size="14.00" fill="white">m2:id</text>
</g>
<!-- m2:x&#45;&gt;m2:id -->
<g id="edge2" class="edge">
<title>m2:x&#45;&gt;m2:id</title>
<path fill="none" stroke="cyan" d="M1104.37,-608.58C1053.8,-560.89 916.69,-431.61 858.27,-376.52"/>
<polygon fill="cyan" stroke="cyan" points="861.24,-374.57 851.56,-370.26 856.44,-379.67 861.24,-374.57"/>
<text text-anchor="middle" x="886.32" y="-496.35" font-family="FiraCode Nerd Font Mono Regular" font-size="14.00" fill="white">crm:P1_is_identified_by</text>
</g>
<!-- crm:E42_Identifier -->
<g id="node4" class="node">
<title>crm:E42_Identifier</title>
<polygon fill="none" stroke="cyan" points="770.41,-36 605.41,-36 605.41,0 770.41,0 770.41,-36"/>
<text text-anchor="middle" x="687.91" y="-14.3" font-family="FiraCode Nerd Font Mono Regular" font-size="14.00" fill="white">crm:E42_Identifier</text>
</g>
<!-- m2:id&#45;&gt;crm:E42_Identifier -->
<g id="edge3" class="edge">
<title>m2:id&#45;&gt;crm:E42_Identifier</title>
<path fill="none" stroke="cyan" d="M823.41,-332.73C799.61,-277.45 728.57,-112.46 700,-46.1"/>
<polygon fill="cyan" stroke="cyan" points="702.96,-45.13 695.8,-37.33 696.54,-47.9 702.96,-45.13"/>
<text text-anchor="middle" x="728.2" y="-193.21" font-family="FiraCode Nerd Font Mono Regular" font-size="14.00" fill="white">rdf:type</text>
</g>
<!-- m2:t -->
<g id="node5" class="node">
<title>m2:t</title>
<polygon fill="none" stroke="cyan" points="478.31,-575.05 424.31,-575.05 424.31,-539.05 478.31,-539.05 478.31,-575.05"/>
<text text-anchor="middle" x="451.31" y="-553.35" font-family="FiraCode Nerd Font Mono Regular" font-size="14.00" fill="white">m2:t</text>
</g>
<!-- m2:id&#45;&gt;m2:t -->
<g id="edge6" class="edge">
<title>m2:id&#45;&gt;m2:t</title>
<path fill="none" stroke="cyan" d="M802.13,-366.93C733.85,-403.93 563.8,-496.08 488.36,-536.97"/>
<polygon fill="cyan" stroke="cyan" points="486.92,-534.31 479.79,-542.15 490.25,-540.47 486.92,-534.31"/>
<text text-anchor="middle" x="583.25" y="-455.75" font-family="FiraCode Nerd Font Mono Regular" font-size="14.00" fill="white">crm:P2_has_type</text>
</g>
<!-- http://gallica.bnf.fr/iiif/ark:/12148/btv1b10025411c/f7/full/full/0/native.jpg -->
<g id="node7" class="node">
<title>http://gallica.bnf.fr/iiif/ark:/12148/btv1b10025411c/f7/full/full/0/native.jpg</title>
<polygon fill="none" stroke="cyan" points="1437.63,-128.22 777.63,-128.22 777.63,-92.22 1437.63,-92.22 1437.63,-128.22"/>
<text text-anchor="middle" x="1107.63" y="-106.52" font-family="FiraCode Nerd Font Mono Regular" font-size="14.00" fill="white">http://gallica.bnf.fr/iiif/ark:/12148/btv1b10025411c/f7/full/full/0/native.jpg</text>
</g>
<!-- m2:id&#45;&gt;http://gallica.bnf.fr/iiif/ark:/12148/btv1b10025411c/f7/full/full/0/native.jpg -->
<g id="edge5" class="edge">
<title>m2:id&#45;&gt;http://gallica.bnf.fr/iiif/ark:/12148/btv1b10025411c/f7/full/full/0/native.jpg</title>
<path fill="none" stroke="cyan" d="M852.09,-333.01C900.79,-290.54 1022.48,-184.46 1078.53,-135.59"/>
<polygon fill="cyan" stroke="cyan" points="1080.38,-137.75 1085.62,-128.54 1075.78,-132.47 1080.38,-137.75"/>
<text text-anchor="middle" x="845.31" y="-238.1" font-family="FiraCode Nerd Font Mono Regular" font-size="14.00" fill="white">crm:P190_has_symbolic_content</text>
</g>
<!-- « Identifiant IIIF v3 » -->
<g id="node6" class="node">
<title>« Identifiant IIIF v3 »</title>
<polygon fill="none" stroke="cyan" points="206,-500.99 0,-500.99 0,-464.99 206,-464.99 206,-500.99"/>
<text text-anchor="middle" x="103" y="-479.29" font-family="FiraCode Nerd Font Mono Regular" font-size="14.00" fill="white">« Identifiant IIIF v3 »</text>
</g>
<!-- m2:t&#45;&gt;« Identifiant IIIF v3 » -->
<g id="edge4" class="edge">
<title>m2:t&#45;&gt;« Identifiant IIIF v3 »</title>
<path fill="none" stroke="cyan" d="M423.98,-551.24C376.42,-541.12 276.27,-519.83 200.41,-503.7"/>
<polygon fill="cyan" stroke="cyan" points="201.38,-500.11 190.87,-501.46 199.93,-506.96 201.38,-500.11"/>
<text text-anchor="middle" x="217.19" y="-531.27" font-family="FiraCode Nerd Font Mono Regular" font-size="14.00" fill="white">crm:P1_is_identified_by</text>
</g>
<!-- crm:E55_Type -->
<g id="node8" class="node">
<title>crm:E55_Type</title>
<polygon fill="none" stroke="cyan" points="437.19,-915.75 321.19,-915.75 321.19,-879.75 437.19,-879.75 437.19,-915.75"/>
<text text-anchor="middle" x="379.19" y="-894.05" font-family="FiraCode Nerd Font Mono Regular" font-size="14.00" fill="white">crm:E55_Type</text>
</g>
<!-- m2:t&#45;&gt;crm:E55_Type -->
<g id="edge7" class="edge">
<title>m2:t&#45;&gt;crm:E55_Type</title>
<path fill="none" stroke="cyan" d="M447.43,-575.37C435.57,-631.4 399.7,-800.84 385.29,-868.94"/>
<polygon fill="cyan" stroke="cyan" points="381.73,-867.83 383.09,-878.34 388.58,-869.28 381.73,-867.83"/>
<text text-anchor="middle" x="382.86" y="-725.95" font-family="FiraCode Nerd Font Mono Regular" font-size="14.00" fill="white">rdf:type</text>
</g>
</g>
</svg>
