<?xml version="1.0" encoding="UTF-8" standalone="no"?>
<!DOCTYPE svg PUBLIC "-//W3C//DTD SVG 1.1//EN"
 "http://www.w3.org/Graphics/SVG/1.1/DTD/svg11.dtd">
<!-- Generated by graphviz version 8.0.3 (20230416.2022)
 -->
<!-- Pages: 1 -->
<svg width="991pt" height="514pt"
 viewBox="0.00 0.00 991.16 513.69" xmlns="http://www.w3.org/2000/svg" xmlns:xlink="http://www.w3.org/1999/xlink">
<g id="graph0" class="graph" transform="scale(1 1) rotate(0) translate(4 509.69)">
<polygon fill="black" stroke="none" points="-4,4 -4,-509.69 987.16,-509.69 987.16,4 -4,4"/>
<!-- m2:x -->
<g id="node1" class="node">
<title>m2:x</title>
<polygon fill="none" stroke="cyan" points="419.91,-270.8 365.91,-270.8 365.91,-234.8 419.91,-234.8 419.91,-270.8"/>
<text text-anchor="middle" x="392.91" y="-249.1" font-family="FiraCode Nerd Font Mono Regular" font-size="14.00" fill="white">m2:x</text>
</g>
<!-- crm:E28_Conceptual_Object -->
<g id="node2" class="node">
<title>crm:E28_Conceptual_Object</title>
<polygon fill="none" stroke="cyan" points="223,-270.83 0,-270.83 0,-234.83 223,-234.83 223,-270.83"/>
<text text-anchor="middle" x="111.5" y="-249.13" font-family="FiraCode Nerd Font Mono Regular" font-size="14.00" fill="white">crm:E28_Conceptual_Object</text>
</g>
<!-- m2:x&#45;&gt;crm:E28_Conceptual_Object -->
<g id="edge1" class="edge">
<title>m2:x&#45;&gt;crm:E28_Conceptual_Object</title>
<path fill="none" stroke="cyan" d="M365.42,-252.8C334.69,-252.8 282.81,-252.81 233.92,-252.81"/>
<polygon fill="cyan" stroke="cyan" points="234.22,-249.31 224.22,-252.82 234.22,-256.31 234.22,-249.31"/>
<text text-anchor="middle" x="266.17" y="-256.61" font-family="FiraCode Nerd Font Mono Regular" font-size="14.00" fill="white">rdf:type</text>
</g>
<!-- m2:t -->
<g id="node3" class="node">
<title>m2:t</title>
<polygon fill="none" stroke="cyan" points="736.39,-270.83 682.39,-270.83 682.39,-234.83 736.39,-234.83 736.39,-270.83"/>
<text text-anchor="middle" x="709.39" y="-249.13" font-family="FiraCode Nerd Font Mono Regular" font-size="14.00" fill="white">m2:t</text>
</g>
<!-- m2:x&#45;&gt;m2:t -->
<g id="edge2" class="edge">
<title>m2:x&#45;&gt;m2:t</title>
<path fill="none" stroke="cyan" d="M420.17,-252.8C476.6,-252.81 606.37,-252.82 671.15,-252.83"/>
<polygon fill="cyan" stroke="cyan" points="671.09,-256.33 681.09,-252.83 671.09,-249.33 671.09,-256.33"/>
<text text-anchor="middle" x="483.66" y="-256.61" font-family="FiraCode Nerd Font Mono Regular" font-size="14.00" fill="white">crm:P2_has_type</text>
</g>
<!-- crm:E55_Type -->
<g id="node4" class="node">
<title>crm:E55_Type</title>
<polygon fill="none" stroke="cyan" points="942.23,-36 826.23,-36 826.23,0 942.23,0 942.23,-36"/>
<text text-anchor="middle" x="884.23" y="-14.3" font-family="FiraCode Nerd Font Mono Regular" font-size="14.00" fill="white">crm:E55_Type</text>
</g>
<!-- m2:t&#45;&gt;crm:E55_Type -->
<g id="edge3" class="edge">
<title>m2:t&#45;&gt;crm:E55_Type</title>
<path fill="none" stroke="cyan" d="M723.11,-234.4C753.81,-193.16 828.19,-93.27 864.13,-45"/>
<polygon fill="cyan" stroke="cyan" points="867.41,-47.45 870.58,-37.34 861.8,-43.27 867.41,-47.45"/>
<text text-anchor="middle" x="760.12" y="-143.5" font-family="FiraCode Nerd Font Mono Regular" font-size="14.00" fill="white">rdf:type</text>
</g>
<!-- « Cadence Phrygienne » -->
<g id="node5" class="node">
<title>« Cadence Phrygienne »</title>
<polygon fill="none" stroke="cyan" points="983.16,-505.69 785.16,-505.69 785.16,-469.69 983.16,-469.69 983.16,-505.69"/>
<text text-anchor="middle" x="884.16" y="-483.99" font-family="FiraCode Nerd Font Mono Regular" font-size="14.00" fill="white">« Cadence Phrygienne »</text>
</g>
<!-- m2:t&#45;&gt;« Cadence Phrygienne » -->
<g id="edge4" class="edge">
<title>m2:t&#45;&gt;« Cadence Phrygienne »</title>
<path fill="none" stroke="cyan" d="M723.1,-271.26C753.8,-312.51 828.14,-412.41 864.07,-460.69"/>
<polygon fill="cyan" stroke="cyan" points="861.73,-462.41 870.51,-468.35 867.35,-458.24 861.73,-462.41"/>
<text text-anchor="middle" x="698.59" y="-369.77" font-family="FiraCode Nerd Font Mono Regular" font-size="14.00" fill="white">crm:P1_is_identified_by</text>
</g>
</g>
</svg>
