<?xml version="1.0" encoding="UTF-8" standalone="no"?>
<!DOCTYPE svg PUBLIC "-//W3C//DTD SVG 1.1//EN"
 "http://www.w3.org/Graphics/SVG/1.1/DTD/svg11.dtd">
<!-- Generated by graphviz version 8.0.3 (20230416.2022)
 -->
<!-- Pages: 1 -->
<svg width="1265pt" height="724pt"
 viewBox="0.00 0.00 1265.47 723.97" xmlns="http://www.w3.org/2000/svg" xmlns:xlink="http://www.w3.org/1999/xlink">
<g id="graph0" class="graph" transform="scale(1 1) rotate(0) translate(4 719.97)">
<polygon fill="black" stroke="none" points="-4,4 -4,-719.97 1261.47,-719.97 1261.47,4 -4,4"/>
<!-- m2:i1 -->
<g id="node1" class="node">
<title>m2:i1</title>
<polygon fill="none" stroke="cyan" points="964.93,-450.74 906.93,-450.74 906.93,-414.74 964.93,-414.74 964.93,-450.74"/>
<text text-anchor="middle" x="935.93" y="-429.04" font-family="FiraCode Nerd Font Mono Regular" font-size="14.00" fill="white">m2:i1</text>
</g>
<!-- crm:E36_Visual_Item -->
<g id="node2" class="node">
<title>crm:E36_Visual_Item</title>
<polygon fill="none" stroke="cyan" points="1093.33,-661.52 920.33,-661.52 920.33,-625.52 1093.33,-625.52 1093.33,-661.52"/>
<text text-anchor="middle" x="1006.83" y="-639.82" font-family="FiraCode Nerd Font Mono Regular" font-size="14.00" fill="white">crm:E36_Visual_Item</text>
</g>
<!-- m2:i1&#45;&gt;crm:E36_Visual_Item -->
<g id="edge1" class="edge">
<title>m2:i1&#45;&gt;crm:E36_Visual_Item</title>
<path fill="none" stroke="#d95f02" d="M942.1,-451.08C954.46,-487.83 982.35,-570.73 997.16,-614.77"/>
<polygon fill="#d95f02" stroke="#d95f02" points="994.12,-615.72 1000.63,-624.08 1000.76,-613.48 994.12,-615.72"/>
<text text-anchor="middle" x="937.89" y="-541.95" font-family="FiraCode Nerd Font Mono Regular" font-size="14.00" fill="#d95f02">rdf:type</text>
</g>
<!-- m2:id1 -->
<g id="node5" class="node">
<title>m2:id1</title>
<polygon fill="none" stroke="cyan" points="814.58,-241.3 748.58,-241.3 748.58,-205.3 814.58,-205.3 814.58,-241.3"/>
<text text-anchor="middle" x="781.58" y="-219.6" font-family="FiraCode Nerd Font Mono Regular" font-size="14.00" fill="white">m2:id1</text>
</g>
<!-- m2:i1&#45;&gt;m2:id1 -->
<g id="edge3" class="edge">
<title>m2:i1&#45;&gt;m2:id1</title>
<path fill="none" stroke="#ccebc5" d="M922.5,-414.52C895.25,-377.54 833.33,-293.53 801.41,-250.22"/>
<polygon fill="#ccebc5" stroke="#ccebc5" points="803.83,-248.6 795.08,-242.63 798.2,-252.75 803.83,-248.6"/>
<text text-anchor="middle" x="763.88" y="-331.99" font-family="FiraCode Nerd Font Mono Regular" font-size="14.00" fill="#ccebc5">crm:P1_is_identified_by</text>
</g>
<!-- m2:i2 -->
<g id="node10" class="node">
<title>m2:i2</title>
<polygon fill="none" stroke="cyan" points="814.28,-640.24 756.28,-640.24 756.28,-604.24 814.28,-604.24 814.28,-640.24"/>
<text text-anchor="middle" x="785.28" y="-618.54" font-family="FiraCode Nerd Font Mono Regular" font-size="14.00" fill="white">m2:i2</text>
</g>
<!-- m2:i1&#45;&gt;m2:i2 -->
<g id="edge10" class="edge">
<title>m2:i1&#45;&gt;m2:i2</title>
<path fill="none" stroke="#a6cee3" d="M921.49,-450.91C894.78,-484.5 837.6,-556.44 806.49,-595.56"/>
<polygon fill="#a6cee3" stroke="#a6cee3" points="803.39,-592.84 799.9,-602.85 808.87,-597.2 803.39,-592.84"/>
<text text-anchor="middle" x="765.84" y="-531" font-family="FiraCode Nerd Font Mono Regular" font-size="14.00" fill="#a6cee3">crm:P106_is_composed_of</text>
</g>
<!-- m2:t -->
<g id="node3" class="node">
<title>m2:t</title>
<polygon fill="none" stroke="cyan" points="539.65,-268.39 485.65,-268.39 485.65,-232.39 539.65,-232.39 539.65,-268.39"/>
<text text-anchor="middle" x="512.65" y="-246.69" font-family="FiraCode Nerd Font Mono Regular" font-size="14.00" fill="white">m2:t</text>
</g>
<!-- crm:E55_Type -->
<g id="node4" class="node">
<title>crm:E55_Type</title>
<polygon fill="none" stroke="cyan" points="328.58,-251.94 212.58,-251.94 212.58,-215.94 328.58,-215.94 328.58,-251.94"/>
<text text-anchor="middle" x="270.58" y="-230.24" font-family="FiraCode Nerd Font Mono Regular" font-size="14.00" fill="white">crm:E55_Type</text>
</g>
<!-- m2:t&#45;&gt;crm:E55_Type -->
<g id="edge2" class="edge">
<title>m2:t&#45;&gt;crm:E55_Type</title>
<path fill="none" stroke="#377eb8" d="M485.36,-248.53C450.29,-246.15 388.2,-241.93 339.76,-238.64"/>
<polygon fill="#377eb8" stroke="#377eb8" points="340.24,-235.1 330.02,-237.91 339.76,-242.08 340.24,-235.1"/>
<text text-anchor="middle" x="373.65" y="-247.02" font-family="FiraCode Nerd Font Mono Regular" font-size="14.00" fill="#377eb8">rdf:type</text>
</g>
<!-- « Identifiant IIIF v3 » -->
<g id="node7" class="node">
<title>« Identifiant IIIF v3 »</title>
<polygon fill="none" stroke="cyan" points="545.77,-36 339.77,-36 339.77,0 545.77,0 545.77,-36"/>
<text text-anchor="middle" x="442.77" y="-14.3" font-family="FiraCode Nerd Font Mono Regular" font-size="14.00" fill="white">« Identifiant IIIF v3 »</text>
</g>
<!-- m2:t&#45;&gt;« Identifiant IIIF v3 » -->
<g id="edge5" class="edge">
<title>m2:t&#45;&gt;« Identifiant IIIF v3 »</title>
<path fill="none" stroke="#beaed4" d="M507.17,-232.15C495.08,-191.95 466.05,-95.42 451.45,-46.89"/>
<polygon fill="#beaed4" stroke="#beaed4" points="454.55,-46.04 448.32,-37.47 447.85,-48.06 454.55,-46.04"/>
<text text-anchor="middle" x="382.76" y="-138.18" font-family="FiraCode Nerd Font Mono Regular" font-size="14.00" fill="#beaed4">crm:P1_is_identified_by</text>
</g>
<!-- m2:id1&#45;&gt;m2:t -->
<g id="edge9" class="edge">
<title>m2:id1&#45;&gt;m2:t</title>
<path fill="none" stroke="#bebada" d="M748.33,-226.65C698.32,-231.69 603.96,-241.19 551.07,-246.52"/>
<polygon fill="#bebada" stroke="#bebada" points="550.74,-243.13 541.14,-247.62 551.44,-250.1 550.74,-243.13"/>
<text text-anchor="middle" x="675.37" y="-225.92" font-family="FiraCode Nerd Font Mono Regular" font-size="14.00" fill="#bebada">crm:P2_has_type</text>
</g>
<!-- https://gallica.bnf.fr/iiif/ark:/12148/btv1b10025411c/f7/full/full/0/native.jpg -->
<g id="node8" class="node">
<title>https://gallica.bnf.fr/iiif/ark:/12148/btv1b10025411c/f7/full/full/0/native.jpg</title>
<polygon fill="none" stroke="cyan" points="1257.47,-54.96 589.47,-54.96 589.47,-18.96 1257.47,-18.96 1257.47,-54.96"/>
<text text-anchor="middle" x="923.47" y="-33.26" font-family="FiraCode Nerd Font Mono Regular" font-size="14.00" fill="white">https://gallica.bnf.fr/iiif/ark:/12148/btv1b10025411c/f7/full/full/0/native.jpg</text>
</g>
<!-- m2:id1&#45;&gt;https://gallica.bnf.fr/iiif/ark:/12148/btv1b10025411c/f7/full/full/0/native.jpg -->
<g id="edge6" class="edge">
<title>m2:id1&#45;&gt;https://gallica.bnf.fr/iiif/ark:/12148/btv1b10025411c/f7/full/full/0/native.jpg</title>
<path fill="none" stroke="#f4cae4" d="M795.44,-205.1C820.55,-172.12 873.68,-102.35 902.98,-63.86"/>
<polygon fill="#f4cae4" stroke="#f4cae4" points="906.27,-66.32 909.55,-56.24 900.7,-62.08 906.27,-66.32"/>
<text text-anchor="middle" x="732.59" y="-133.84" font-family="FiraCode Nerd Font Mono Regular" font-size="14.00" fill="#f4cae4">crm:P190_has_symbolic_content</text>
</g>
<!-- crm:E42_Identifier -->
<g id="node11" class="node">
<title>crm:E42_Identifier</title>
<polygon fill="none" stroke="cyan" points="763.85,-402.77 598.85,-402.77 598.85,-366.77 763.85,-366.77 763.85,-402.77"/>
<text text-anchor="middle" x="681.35" y="-381.07" font-family="FiraCode Nerd Font Mono Regular" font-size="14.00" fill="white">crm:E42_Identifier</text>
</g>
<!-- m2:id1&#45;&gt;crm:E42_Identifier -->
<g id="edge12" class="edge">
<title>m2:id1&#45;&gt;crm:E42_Identifier</title>
<path fill="none" stroke="#bebada" d="M770.27,-241.51C752.75,-269.73 718.93,-324.23 698.42,-357.27"/>
<polygon fill="#bebada" stroke="#bebada" points="695.07,-355.03 692.77,-365.38 701.01,-358.73 695.07,-355.03"/>
<text text-anchor="middle" x="697.93" y="-307.88" font-family="FiraCode Nerd Font Mono Regular" font-size="14.00" fill="#bebada">rdf:type</text>
</g>
<!-- m2:id2 -->
<g id="node6" class="node">
<title>m2:id2</title>
<polygon fill="none" stroke="cyan" points="579.59,-536.64 513.59,-536.64 513.59,-500.64 579.59,-500.64 579.59,-536.64"/>
<text text-anchor="middle" x="546.59" y="-514.94" font-family="FiraCode Nerd Font Mono Regular" font-size="14.00" fill="white">m2:id2</text>
</g>
<!-- m2:id2&#45;&gt;m2:t -->
<g id="edge4" class="edge">
<title>m2:id2&#45;&gt;m2:t</title>
<path fill="none" stroke="#e78ac3" d="M544.26,-500.2C538.45,-454.34 523.34,-334.84 516.32,-279.41"/>
<polygon fill="#e78ac3" stroke="#e78ac3" points="519.68,-279.08 514.96,-269.6 512.74,-279.96 519.68,-279.08"/>
<text text-anchor="middle" x="467.61" y="-388.21" font-family="FiraCode Nerd Font Mono Regular" font-size="14.00" fill="#e78ac3">crm:P2_has_type</text>
</g>
<!-- https://gallica.bnf.fr/iiif/ark:/12148/btv1b10025411c/f7/1000,1000,2000,1000/full/0/native.jpg -->
<g id="node9" class="node">
<title>https://gallica.bnf.fr/iiif/ark:/12148/btv1b10025411c/f7/1000,1000,2000,1000/full/0/native.jpg</title>
<polygon fill="none" stroke="cyan" points="792,-715.97 0,-715.97 0,-679.97 792,-679.97 792,-715.97"/>
<text text-anchor="middle" x="396" y="-694.27" font-family="FiraCode Nerd Font Mono Regular" font-size="14.00" fill="white">https://gallica.bnf.fr/iiif/ark:/12148/btv1b10025411c/f7/1000,1000,2000,1000/full/0/native.jpg</text>
</g>
<!-- m2:id2&#45;&gt;https://gallica.bnf.fr/iiif/ark:/12148/btv1b10025411c/f7/1000,1000,2000,1000/full/0/native.jpg -->
<g id="edge7" class="edge">
<title>m2:id2&#45;&gt;https://gallica.bnf.fr/iiif/ark:/12148/btv1b10025411c/f7/1000,1000,2000,1000/full/0/native.jpg</title>
<path fill="none" stroke="#4daf4a" d="M531.32,-536.82C504.67,-568.56 449.55,-634.21 418.51,-671.17"/>
<polygon fill="#4daf4a" stroke="#4daf4a" points="415.28,-668.57 411.53,-678.47 420.64,-673.07 415.28,-668.57"/>
<text text-anchor="middle" x="351.39" y="-612" font-family="FiraCode Nerd Font Mono Regular" font-size="14.00" fill="#4daf4a">crm:P190_has_symbolic_content</text>
</g>
<!-- m2:id2&#45;&gt;crm:E42_Identifier -->
<g id="edge13" class="edge">
<title>m2:id2&#45;&gt;crm:E42_Identifier</title>
<path fill="none" stroke="#ff7f00" d="M565.04,-500.3C588.43,-477.07 628.88,-436.89 655.38,-410.57"/>
<polygon fill="#ff7f00" stroke="#ff7f00" points="657.49,-413.41 662.12,-403.88 652.56,-408.44 657.49,-413.41"/>
<text text-anchor="middle" x="580.53" y="-455.44" font-family="FiraCode Nerd Font Mono Regular" font-size="14.00" fill="#ff7f00">rdf:type</text>
</g>
<!-- m2:i2&#45;&gt;crm:E36_Visual_Item -->
<g id="edge8" class="edge">
<title>m2:i2&#45;&gt;crm:E36_Visual_Item</title>
<path fill="none" stroke="#1b9e77" d="M814.7,-625.07C839.02,-627.4 875.01,-630.86 909.28,-634.15"/>
<polygon fill="#1b9e77" stroke="#1b9e77" points="908.55,-637.69 918.84,-635.17 909.22,-630.73 908.55,-637.69"/>
<text text-anchor="middle" x="883.92" y="-618.91" font-family="FiraCode Nerd Font Mono Regular" font-size="14.00" fill="#1b9e77">rdf:type</text>
</g>
<!-- m2:i2&#45;&gt;m2:id2 -->
<g id="edge11" class="edge">
<title>m2:i2&#45;&gt;m2:id2</title>
<path fill="none" stroke="#f4cae4" d="M756.01,-609.54C714.41,-591.48 637.88,-558.26 589.75,-537.37"/>
<polygon fill="#f4cae4" stroke="#f4cae4" points="591.5,-533.88 580.93,-533.11 588.71,-540.3 591.5,-533.88"/>
<text text-anchor="middle" x="572.85" y="-575.07" font-family="FiraCode Nerd Font Mono Regular" font-size="14.00" fill="#f4cae4">crm:P1_is_identified_by</text>
</g>
</g>
</svg>
