<?xml version="1.0" encoding="UTF-8" standalone="no"?>
<!DOCTYPE svg PUBLIC "-//W3C//DTD SVG 1.1//EN"
 "http://www.w3.org/Graphics/SVG/1.1/DTD/svg11.dtd">
<!-- Generated by graphviz version 8.0.3 (20230416.2022)
 -->
<!-- Pages: 1 -->
<svg width="1420pt" height="794pt"
 viewBox="0.00 0.00 1419.59 794.06" xmlns="http://www.w3.org/2000/svg" xmlns:xlink="http://www.w3.org/1999/xlink">
<g id="graph0" class="graph" transform="scale(1 1) rotate(0) translate(4 790.06)">
<polygon fill="black" stroke="none" points="-4,4 -4,-790.06 1415.59,-790.06 1415.59,4 -4,4"/>
<!-- m2:t -->
<g id="node1" class="node">
<title>m2:t</title>
<polygon fill="none" stroke="cyan" points="923.69,-412.11 869.69,-412.11 869.69,-376.11 923.69,-376.11 923.69,-412.11"/>
<text text-anchor="middle" x="896.69" y="-390.41" font-family="FiraCode Nerd Font Mono Regular" font-size="14.00" fill="white">m2:t</text>
</g>
<!-- crm:E52_Time&#45;Span -->
<g id="node2" class="node">
<title>crm:E52_Time&#45;Span</title>
<polygon fill="none" stroke="cyan" points="755.58,-716.05 598.58,-716.05 598.58,-680.05 755.58,-680.05 755.58,-716.05"/>
<text text-anchor="middle" x="677.08" y="-694.35" font-family="FiraCode Nerd Font Mono Regular" font-size="14.00" fill="white">crm:E52_Time&#45;Span</text>
</g>
<!-- m2:t&#45;&gt;crm:E52_Time&#45;Span -->
<g id="edge1" class="edge">
<title>m2:t&#45;&gt;crm:E52_Time&#45;Span</title>
<path fill="none" stroke="cyan" d="M883.61,-412.21C846.54,-463.51 740.66,-610.06 696.64,-670.98"/>
<polygon fill="cyan" stroke="cyan" points="693.39,-668.5 690.37,-678.66 699.06,-672.6 693.39,-668.5"/>
<text text-anchor="middle" x="756.62" y="-545.4" font-family="FiraCode Nerd Font Mono Regular" font-size="14.00" fill="white">rdf:type</text>
</g>
<!-- « début du début possible » -->
<g id="node3" class="node">
<title>« début du début possible »</title>
<polygon fill="none" stroke="cyan" points="1291.52,-115.84 1052.52,-115.84 1052.52,-79.84 1291.52,-79.84 1291.52,-115.84"/>
<text text-anchor="middle" x="1172.02" y="-94.14" font-family="FiraCode Nerd Font Mono Regular" font-size="14.00" fill="white">« début du début possible »</text>
</g>
<!-- m2:t&#45;&gt;« début du début possible » -->
<g id="edge2" class="edge">
<title>m2:t&#45;&gt;« début du début possible »</title>
<path fill="none" stroke="#d95f02" d="M913.5,-376.02C960.44,-325.51 1093.1,-182.77 1147.89,-123.81"/>
<polygon fill="#d95f02" stroke="#d95f02" points="1149.84,-126.77 1154.08,-117.06 1144.71,-122.01 1149.84,-126.77"/>
<text text-anchor="middle" x="919.19" y="-253.72" font-family="FiraCode Nerd Font Mono Regular" font-size="14.00" fill="#d95f02">crm:P82a_begin_of_the_begin</text>
</g>
<!-- « fin du début possible » -->
<g id="node4" class="node">
<title>« fin du début possible »</title>
<polygon fill="none" stroke="cyan" points="1411.59,-477.23 1188.59,-477.23 1188.59,-441.23 1411.59,-441.23 1411.59,-477.23"/>
<text text-anchor="middle" x="1300.09" y="-455.53" font-family="FiraCode Nerd Font Mono Regular" font-size="14.00" fill="white">« fin du début possible »</text>
</g>
<!-- m2:t&#45;&gt;« fin du début possible » -->
<g id="edge3" class="edge">
<title>m2:t&#45;&gt;« fin du début possible »</title>
<path fill="none" stroke="#fdcdac" d="M924.1,-398.54C975.39,-406.82 1088.72,-425.11 1177.63,-439.46"/>
<polygon fill="#fdcdac" stroke="#fdcdac" points="1176.92,-443.05 1187.35,-441.19 1178.03,-436.14 1176.92,-443.05"/>
<text text-anchor="middle" x="947.37" y="-422.8" font-family="FiraCode Nerd Font Mono Regular" font-size="14.00" fill="#fdcdac">crm:P81a_end_of_the_begin</text>
</g>
<!-- « début de la fin possible » -->
<g id="node5" class="node">
<title>« début de la fin possible »</title>
<polygon fill="none" stroke="cyan" points="1187.63,-786.06 939.63,-786.06 939.63,-750.06 1187.63,-750.06 1187.63,-786.06"/>
<text text-anchor="middle" x="1063.63" y="-764.36" font-family="FiraCode Nerd Font Mono Regular" font-size="14.00" fill="white">« début de la fin possible »</text>
</g>
<!-- m2:t&#45;&gt;« début de la fin possible » -->
<g id="edge4" class="edge">
<title>m2:t&#45;&gt;« début de la fin possible »</title>
<path fill="none" stroke="#ff7f00" d="M904.85,-412.4C931.87,-472.92 1018.49,-666.96 1051.08,-739.95"/>
<polygon fill="#ff7f00" stroke="#ff7f00" points="1048.2,-741.1 1055.48,-748.81 1054.6,-738.25 1048.2,-741.1"/>
<text text-anchor="middle" x="874.46" y="-579.97" font-family="FiraCode Nerd Font Mono Regular" font-size="14.00" fill="#ff7f00">crm:P81b_begin_of_the_end</text>
</g>
<!-- « fin de la fin possible » -->
<g id="node6" class="node">
<title>« fin de la fin possible »</title>
<polygon fill="none" stroke="cyan" points="891.73,-36 660.73,-36 660.73,0 891.73,0 891.73,-36"/>
<text text-anchor="middle" x="776.23" y="-14.3" font-family="FiraCode Nerd Font Mono Regular" font-size="14.00" fill="white">« fin de la fin possible »</text>
</g>
<!-- m2:t&#45;&gt;« fin de la fin possible » -->
<g id="edge5" class="edge">
<title>m2:t&#45;&gt;« fin de la fin possible »</title>
<path fill="none" stroke="#fc8d62" d="M890.79,-375.72C871.34,-314.97 809.05,-120.49 785.43,-46.73"/>
<polygon fill="#fc8d62" stroke="#fc8d62" points="788.49,-45.82 782.11,-37.36 781.82,-47.95 788.49,-45.82"/>
<text text-anchor="middle" x="743.11" y="-215.02" font-family="FiraCode Nerd Font Mono Regular" font-size="14.00" fill="#fc8d62">crm:P82b_end_of_the_end</text>
</g>
<!-- m2:e -->
<g id="node7" class="node">
<title>m2:e</title>
<polygon fill="none" stroke="cyan" points="461.83,-379.19 407.83,-379.19 407.83,-343.19 461.83,-343.19 461.83,-379.19"/>
<text text-anchor="middle" x="434.83" y="-357.49" font-family="FiraCode Nerd Font Mono Regular" font-size="14.00" fill="white">m2:e</text>
</g>
<!-- m2:e&#45;&gt;m2:t -->
<g id="edge6" class="edge">
<title>m2:e&#45;&gt;m2:t</title>
<path fill="none" stroke="cyan" d="M462,-363.12C540.44,-368.72 767.44,-384.9 858.37,-391.38"/>
<polygon fill="cyan" stroke="cyan" points="858.04,-394.94 868.26,-392.16 858.54,-387.95 858.04,-394.94"/>
<text text-anchor="middle" x="577.18" y="-381.05" font-family="FiraCode Nerd Font Mono Regular" font-size="14.00" fill="white">crm:P4_has_time&#45;span</text>
</g>
<!-- crm:E7_Activity -->
<g id="node8" class="node">
<title>crm:E7_Activity</title>
<polygon fill="none" stroke="cyan" points="140,-418.39 0,-418.39 0,-382.39 140,-382.39 140,-418.39"/>
<text text-anchor="middle" x="70" y="-396.69" font-family="FiraCode Nerd Font Mono Regular" font-size="14.00" fill="white">crm:E7_Activity</text>
</g>
<!-- m2:e&#45;&gt;crm:E7_Activity -->
<g id="edge7" class="edge">
<title>m2:e&#45;&gt;crm:E7_Activity</title>
<path fill="none" stroke="cyan" d="M407.41,-364.13C353.65,-369.91 232.54,-382.92 151.02,-391.68"/>
<polygon fill="cyan" stroke="cyan" points="150.86,-388.29 141.29,-392.84 151.61,-395.25 150.86,-388.29"/>
<text text-anchor="middle" x="245.72" y="-381.71" font-family="FiraCode Nerd Font Mono Regular" font-size="14.00" fill="white">rdf:type</text>
</g>
</g>
</svg>
