<?xml version="1.0" encoding="UTF-8" standalone="no"?>
<!DOCTYPE svg PUBLIC "-//W3C//DTD SVG 1.1//EN"
 "http://www.w3.org/Graphics/SVG/1.1/DTD/svg11.dtd">
<!-- Generated by graphviz version 8.0.3 (20230416.2022)
 -->
<!-- Pages: 1 -->
<svg width="453pt" height="98pt"
 viewBox="0.00 0.00 453.00 98.00" xmlns="http://www.w3.org/2000/svg" xmlns:xlink="http://www.w3.org/1999/xlink">
<g id="graph0" class="graph" transform="scale(1 1) rotate(0) translate(4 94)">
<polygon fill="black" stroke="none" points="-4,4 -4,-94 449,-94 449,4 -4,4"/>
<!-- su:x -->
<g id="node1" class="node">
<title>su:x</title>
<polygon fill="none" stroke="cyan" points="54,-63 0,-63 0,-27 54,-27 54,-63"/>
<text text-anchor="middle" x="27" y="-41.3" font-family="FiraCode Nerd Font Mono Regular" font-size="14.00" fill="white">su:x</text>
</g>
<!-- crm:E21_Person -->
<g id="node2" class="node">
<title>crm:E21_Person</title>
<polygon fill="none" stroke="cyan" points="428.5,-90 296.5,-90 296.5,-54 428.5,-54 428.5,-90"/>
<text text-anchor="middle" x="362.5" y="-68.3" font-family="FiraCode Nerd Font Mono Regular" font-size="14.00" fill="white">crm:E21_Person</text>
</g>
<!-- su:x&#45;&gt;crm:E21_Person -->
<g id="edge1" class="edge">
<title>su:x&#45;&gt;crm:E21_Person</title>
<path fill="none" stroke="cyan" d="M54.45,-47.14C103.86,-51.14 211.85,-59.88 285.65,-65.86"/>
<polygon fill="cyan" stroke="cyan" points="285.03,-69.4 295.28,-66.72 285.59,-62.42 285.03,-69.4"/>
<text text-anchor="middle" x="167" y="-66.8" font-family="FiraCode Nerd Font Mono Regular" font-size="14.00" fill="white">rdf:type</text>
</g>
<!-- « Morton Feldman » -->
<g id="node3" class="node">
<title>« Morton Feldman »</title>
<polygon fill="none" stroke="cyan" points="445,-36 280,-36 280,0 445,0 445,-36"/>
<text text-anchor="middle" x="362.5" y="-14.3" font-family="FiraCode Nerd Font Mono Regular" font-size="14.00" fill="white">« Morton Feldman »</text>
</g>
<!-- su:x&#45;&gt;« Morton Feldman » -->
<g id="edge2" class="edge">
<title>su:x&#45;&gt;« Morton Feldman »</title>
<path fill="none" stroke="cyan" d="M54.15,-33.99C59.93,-31.98 66.1,-30.16 72,-29 136.92,-16.29 211.55,-13.73 268.77,-14.26"/>
<polygon fill="cyan" stroke="cyan" points="268.57,-17.77 278.61,-14.39 268.66,-10.77 268.57,-17.77"/>
<text text-anchor="middle" x="167" y="-32.8" font-family="FiraCode Nerd Font Mono Regular" font-size="14.00" fill="white">crm:P1_is_identified_by</text>
</g>
</g>
</svg>
