<?xml version="1.0" encoding="UTF-8" standalone="no"?>
<!DOCTYPE svg PUBLIC "-//W3C//DTD SVG 1.1//EN"
 "http://www.w3.org/Graphics/SVG/1.1/DTD/svg11.dtd">
<!-- Generated by graphviz version 8.0.3 (20230416.2022)
 -->
<!-- Pages: 1 -->
<svg width="876pt" height="479pt"
 viewBox="0.00 0.00 876.03 478.92" xmlns="http://www.w3.org/2000/svg" xmlns:xlink="http://www.w3.org/1999/xlink">
<g id="graph0" class="graph" transform="scale(1 1) rotate(0) translate(4 474.92)">
<polygon fill="black" stroke="none" points="-4,4 -4,-474.92 872.03,-474.92 872.03,4 -4,4"/>
<!-- su:x -->
<g id="node1" class="node">
<title>su:x</title>
<polygon fill="none" stroke="cyan" points="353.58,-253.42 299.58,-253.42 299.58,-217.42 353.58,-217.42 353.58,-253.42"/>
<text text-anchor="middle" x="326.58" y="-231.72" font-family="FiraCode Nerd Font Mono Regular" font-size="14.00" fill="white">su:x</text>
</g>
<!-- crm:E21_Person -->
<g id="node2" class="node">
<title>crm:E21_Person</title>
<polygon fill="none" stroke="cyan" points="132,-253.44 0,-253.44 0,-217.44 132,-217.44 132,-253.44"/>
<text text-anchor="middle" x="66" y="-231.74" font-family="FiraCode Nerd Font Mono Regular" font-size="14.00" fill="white">crm:E21_Person</text>
</g>
<!-- su:x&#45;&gt;crm:E21_Person -->
<g id="edge1" class="edge">
<title>su:x&#45;&gt;crm:E21_Person</title>
<path fill="none" stroke="cyan" d="M299.18,-235.42C262.45,-235.42 195.75,-235.43 143.07,-235.43"/>
<polygon fill="cyan" stroke="cyan" points="143.4,-231.93 133.4,-235.44 143.4,-238.93 143.4,-231.93"/>
<text text-anchor="middle" x="187.63" y="-239.23" font-family="FiraCode Nerd Font Mono Regular" font-size="14.00" fill="white">rdf:type</text>
</g>
<!-- su:a -->
<g id="node3" class="node">
<title>su:a</title>
<polygon fill="none" stroke="cyan" points="646.63,-253.45 592.63,-253.45 592.63,-217.45 646.63,-217.45 646.63,-253.45"/>
<text text-anchor="middle" x="619.63" y="-231.75" font-family="FiraCode Nerd Font Mono Regular" font-size="14.00" fill="white">su:a</text>
</g>
<!-- su:x&#45;&gt;su:a -->
<g id="edge2" class="edge">
<title>su:x&#45;&gt;su:a</title>
<path fill="none" stroke="cyan" d="M353.88,-235.42C406.34,-235.42 521.33,-235.44 581.39,-235.44"/>
<polygon fill="cyan" stroke="cyan" points="581.28,-238.94 591.28,-235.44 581.28,-231.94 581.28,-238.94"/>
<text text-anchor="middle" x="467.63" y="-224.23" font-family="FiraCode Nerd Font Mono Regular" font-size="14.00" fill="white">crm:P1_is_identified_by</text>
</g>
<!-- crm:E41_Appellation -->
<g id="node4" class="node">
<title>crm:E41_Appellation</title>
<polygon fill="none" stroke="cyan" points="868.03,-36 695.03,-36 695.03,0 868.03,0 868.03,-36"/>
<text text-anchor="middle" x="781.53" y="-14.3" font-family="FiraCode Nerd Font Mono Regular" font-size="14.00" fill="white">crm:E41_Appellation</text>
</g>
<!-- su:a&#45;&gt;crm:E41_Appellation -->
<g id="edge3" class="edge">
<title>su:a&#45;&gt;crm:E41_Appellation</title>
<path fill="none" stroke="cyan" d="M633.15,-217.28C661.66,-178.99 728.05,-89.82 761.5,-44.89"/>
<polygon fill="cyan" stroke="cyan" points="764.76,-47.38 767.93,-37.27 759.15,-43.2 764.76,-47.38"/>
<text text-anchor="middle" x="663.83" y="-134.89" font-family="FiraCode Nerd Font Mono Regular" font-size="14.00" fill="white">rdf:type</text>
</g>
<!-- « Morton Feldman » -->
<g id="node5" class="node">
<title>« Morton Feldman »</title>
<polygon fill="none" stroke="cyan" points="863.96,-470.92 698.96,-470.92 698.96,-434.92 863.96,-434.92 863.96,-470.92"/>
<text text-anchor="middle" x="781.46" y="-449.22" font-family="FiraCode Nerd Font Mono Regular" font-size="14.00" fill="white">« Morton Feldman »</text>
</g>
<!-- su:a&#45;&gt;« Morton Feldman » -->
<g id="edge4" class="edge">
<title>su:a&#45;&gt;« Morton Feldman »</title>
<path fill="none" stroke="cyan" d="M633.14,-253.61C661.64,-291.91 728.01,-381.09 761.45,-426.02"/>
<polygon fill="cyan" stroke="cyan" points="759.09,-427.72 767.87,-433.65 764.7,-423.54 759.09,-427.72"/>
<text text-anchor="middle" x="577.3" y="-343.62" font-family="FiraCode Nerd Font Mono Regular" font-size="14.00" fill="white">crm:P190_has_symbolic_content</text>
</g>
</g>
</svg>
